<svg xmlns="http://www.w3.org/2000/svg" xmlns:xlink="http://www.w3.org/1999/xlink" width="498.541" height="89.465" viewBox="0 0 498.541 89.465">
  <defs>
    <linearGradient id="linear-gradient" x1="-0.868" y1="-1.086" x2="1.2" y2="1.186" gradientUnits="objectBoundingBox">
      <stop offset="0" stop-color="#2610ef"/>
      <stop offset="1" stop-color="#f01b58"/>
    </linearGradient>
  </defs>
  <path id="Path_1" data-name="Path 1" d="M-117.9,39.036q0,1.545-1.011,1.545-1.464,0-4.358-.232t-4.323-.232q-1.5,0-4.445.206t-4.41.206q-1.081,0-1.081-1.906,0-3.451.314-10.43t.314-10.43q0-2.06-.837-2.318a16.907,16.907,0,0,0-4.846-.464,17.9,17.9,0,0,0-4.951.464q-.837.258-.837,2.318,0,3.451.209,10.43t.209,10.43q0,1.906-1.081,1.906-1.5,0-4.5-.206t-4.5-.206q-1.36,0-4.1.206t-4.1.206q-1.15,0-1.15-1.494,0-5.614.349-16.868T-166.67,5.3q0-5.975-.331-17.95t-.331-17.95q0-1.133.837-1.133,1.464,0,4.41.206t4.41.206q1.569,0,4.672-.232t4.672-.232q.558,0,.558,1.03,0,3.5-.506,10.533t-.506,10.533q0,.876.628,1.082a24.206,24.206,0,0,0,5.578.412,20.989,20.989,0,0,0,5.195-.412q.872-.309.872-2.009,0-3.245-.3-9.76t-.3-9.76q0-1.648.558-1.648,1.464,0,4.462.232t4.5.232q1.464,0,4.393-.206t4.358-.206q.906,0,.906,1.236,0,5.975-.331,17.9t-.331,17.9q0,5.614.349,16.868T-117.9,39.036Zm40.685-24.465q0,11.846-5.16,19.546t-13.178,7.7q-7.809,0-13.074-7.52t-5.264-19.005q0-12.052,5.055-19.933,5.195-7.983,13.283-7.983,8.019,0,13.178,7.674T-77.211,14.571Zm-15.131,0a6.133,6.133,0,0,0-.924-3.425A2.687,2.687,0,0,0-95.549,9.73a2.694,2.694,0,0,0-2.284,1.391,6.1,6.1,0,0,0-.924,3.451A6.133,6.133,0,0,0-97.833,18a2.687,2.687,0,0,0,2.284,1.416,2.679,2.679,0,0,0,2.3-1.391A6.191,6.191,0,0,0-92.342,14.571ZM-47.264,20.8q0,2.163-.331,6.515t-.331,6.567a6.662,6.662,0,0,1-.3,2.5,6.2,6.2,0,0,1-1.551,1.622,16.2,16.2,0,0,1-10.354,3.245q-11.923,0-11.923-11.486,0-2.73.174-8.267t.174-8.267q0-2.163-1.639-2.215t-1.639-1.6q0-1.185.1-3.528t.1-3.528q0-1.339-.122-3.94t-.122-3.889A2.08,2.08,0,0,1-73.6-7.293a2.227,2.227,0,0,0,1.412-2.086v-6.438q0-7.211-.035-6.078.139-4.945,1.011-4.944a13.831,13.831,0,0,1,3.451.876A21.106,21.106,0,0,0-64-24.882q.662.1,3.7.721a19.17,19.17,0,0,0,3.661.464q.976,0,.976,1.133,0,1.854-.244,5.588t-.244,5.588q0,1.494,1.011,1.494,1.116,0,3.329-.155t3.329-.155q.837,0,.837.979,0,1.545-.244,4.79T-48.136.459q0,1.648.07,4.944t.07,4.944q0,1.288-1.081,1.288-1.011,0-3.033-.1t-3.033-.1q-1.011,0-1.011,1.7,0,4.532,2.859,6.078a11.2,11.2,0,0,0,5.4.979A.551.551,0,0,1-47.264,20.8Zm38.14-7.674q0,5.357-2.266,6.181-.8.309-9.064,1.7L-28.612,22.4a4.291,4.291,0,0,0,2.3,2.781,6.625,6.625,0,0,0,3.068.773,10.355,10.355,0,0,0,4.2-1.288,15.152,15.152,0,0,1,3.016-1.288q.558,0,.906.927.523,1.751,1.673,5.151,0,.052,1.325,2.833a17.8,17.8,0,0,1,1.185,2.73A2.024,2.024,0,0,1-11.39,36.2q-3.87,5.511-13.353,5.511-9.064,0-14.154-6.335-5.473-6.747-5.473-19.83,0-11.795,5.282-19.778t13.2-7.983q6.9,0,11.836,7.546A31.783,31.783,0,0,1-9.124,13.129Zm-13.91-3.708a5.7,5.7,0,0,0-.819-2.936q-.819-1.391-1.83-1.391a2.886,2.886,0,0,0-2.249,1.313,4.827,4.827,0,0,0-1.028,3.065,1.032,1.032,0,0,0,1.15,1.185,8.368,8.368,0,0,0,1.778-.258q1.429-.309,1.778-.361Q-23.034,9.884-23.034,9.421ZM13.537-30.65q0,.309-.07,1.339Q12.456-12.83,12.456,2.673q0,5.717.122,17.177T12.7,37.027q0,2.215-.035,2.369-.174,1.133-1.116,1.133-1.22,0-3.643-.206t-3.643-.206q-1.22,0-3.643.206t-3.643.206q-.976,0-1.15-1.133V37.027q0-5.717.1-17.177t.1-17.177q0-5.563-.506-16.636t-.506-16.585q0-1.082.349-1.339a1.125,1.125,0,0,1,.662-.155q1.395,0,4.131.155t4.1.155q1.36,0,4.1-.155t4.1-.155Q13.537-32.041,13.537-30.65ZM45.96-2.065A32.947,32.947,0,0,1,45.332,3.6q-.558,2.781-1.081,5.614a62.964,62.964,0,0,0-.8,10.1.788.788,0,0,1-.906.876q-1.36,0-4.079-.1t-4.079-.1a61.042,61.042,0,0,0-10.354,1.494q-3.94.824-3.974.824-1.011,0-1.011-3.4A86.138,86.138,0,0,1,20.579,8.8q1.5-7.983,2.127-9.941.279-.927.906-.927A28.164,28.164,0,0,1,27.2-1.7a19.5,19.5,0,0,0,3.556.309l.872-.052q1.29-.051,9.692-1.8,3.591-.721,3.94-.721Q45.96-3.971,45.96-2.065ZM96.929,18.28a29.027,29.027,0,0,1-4.044,15.4Q88.7,40.53,82.88,40.53q-3.173,0-9.483-.206t-9.448-.206q-1.813,0-5.439.206t-5.4.206q-1.15,0-1.15-1.494,0-5.614.418-16.868T52.793,5.3q0-5.872-.383-22.4-.1-4.275-.383-12.722l-.035-.721q-.07-1.185.872-1.185H76.744q8.785,0,13.841,5.048a16.932,16.932,0,0,1,3.835,7,29.379,29.379,0,0,1,1.36,8.859A22.315,22.315,0,0,1,93.74-2.374Q91.7,2.467,91.7,1.9q0,.412.872,1.391Q96.929,8.133,96.929,18.28ZM76.813-10.1q0-4.017-5.439-4.017-1.22,0-1.464.824a17.256,17.256,0,0,0-.1,2.678,15.447,15.447,0,0,0,.139,2.781q.314.876,1.639.876Q76.813-6.958,76.813-10.1ZM78,16.271q0-4.223-6.345-4.223-1.464,0-1.743.773a19.527,19.527,0,0,0-.1,2.936,13.886,13.886,0,0,0,.174,3.039q.349.824,1.883.824a20.637,20.637,0,0,0,3.73-.206A2.98,2.98,0,0,0,78,16.271Zm58.849-1.7q0,11.846-5.16,19.546t-13.178,7.7q-7.809,0-13.074-7.52t-5.264-19.005q0-12.052,5.055-19.933,5.195-7.983,13.283-7.983,8.018,0,13.178,7.674T136.848,14.571Zm-15.131,0a6.133,6.133,0,0,0-.924-3.425,2.559,2.559,0,0,0-4.567-.026,6.1,6.1,0,0,0-.924,3.451A6.132,6.132,0,0,0,116.226,18a2.574,2.574,0,0,0,4.584.026A6.191,6.191,0,0,0,121.717,14.571Zm54.107,0q0,11.846-5.16,19.546t-13.178,7.7q-7.809,0-13.074-7.52t-5.264-19.005q0-12.052,5.055-19.933,5.195-7.983,13.283-7.983,8.018,0,13.178,7.674T175.825,14.571Zm-15.131,0a6.132,6.132,0,0,0-.924-3.425,2.559,2.559,0,0,0-4.567-.026,6.1,6.1,0,0,0-.924,3.451A6.133,6.133,0,0,0,155.2,18a2.574,2.574,0,0,0,4.584.026A6.191,6.191,0,0,0,160.694,14.571ZM222.4,6.021a22.3,22.3,0,0,1-2.127,10.044,20.945,20.945,0,0,1-3.87,5.357q-2.092,2.163-2.092,2.73,0,.927,3.016,7.674a63.217,63.217,0,0,1,3.016,7.262q0,1.545-7.252,1.545H207.2q-3.87,0-4.253-.927-3.661-9.837-4.323-9.837a6.229,6.229,0,0,0-1.429.309q0,1.442.07,4.455t.07,4.507q0,1.854-.837,1.854-1.429,0-4.271-.283t-4.271-.283q-1.116,0-3.382.1t-3.382.1q-1.081,0-1.081-2.215,0-5.151.035-15.5t.035-15.5q0-6.387-.349-19.108t-.349-19.057q0-1.442,1.116-1.494,2.58,0,7.67-.1a38.281,38.281,0,0,0,4.672-.824,22.994,22.994,0,0,1,4.672-.67q.628,0,.628,1.7,0-1.648-.628,10.971-.244,4.429-.244,12.464,0,1.6.453,1.6a1.406,1.406,0,0,0,.628-.361,13.936,13.936,0,0,1,8.716-3.451Q222.4-10.924,222.4,6.021Zm-18.861,6.747a6.154,6.154,0,0,0-.959-3.528,2.818,2.818,0,0,0-2.388-1.416q-3.312,0-3.312,3.4v3.966q0,2.884,3.312,2.884a2.76,2.76,0,0,0,2.423-1.519A7.171,7.171,0,0,0,203.541,12.768ZM243.6-22q0,10.816-8.925,10.816a8.109,8.109,0,0,1-6.206-2.575q-2.719-2.884-2.719-8.241a11.86,11.86,0,0,1,2.824-8.241,7.936,7.936,0,0,1,6.1-2.884,7.936,7.936,0,0,1,6.1,2.884A11.86,11.86,0,0,1,243.6-22Zm.349,13.082q0,.361-.07,1.339-1.22,19.366-1.22,24.465,0,3.451.122,10.378T242.9,37.7a13.725,13.725,0,0,1-.07,1.957.99.99,0,0,1-1.081.876q-1.22,0-3.643-.206t-3.643-.206q-1.22,0-3.643.206t-3.643.206a.99.99,0,0,1-1.081-.876,13.728,13.728,0,0,1-.07-1.957q0-3.5.1-10.43t.1-10.378q0-7.829-1.185-24.465-.1-.979-.1-1.391,0-1.339,1.081-1.339a20.031,20.031,0,0,1,4.2.67,20.06,20.06,0,0,0,4.236.67,20.06,20.06,0,0,0,4.236-.67,20.031,20.031,0,0,1,4.2-.67Q243.947-10.306,243.947-8.915Zm43.16,47.539q0,2.112-1.29,2.112-1.185,0-3.521-.155t-3.486-.155q-1.22,0-3.643.052t-3.643.052q-1.36,0-1.36-2.627,0-2.369.07-7.03t.07-7.03q0-1.751-.07-5.254t-.07-5.254q0-2.987-1.987-2.987-2.022,0-2.022,2.884V38.109q0,2.627-1.5,2.627-1.116,0-3.382-.155t-3.382-.155q-1.185,0-3.573.052t-3.573.052q-1.5,0-1.5-2.215V14.262a110.8,110.8,0,0,0-1.639-20.036,5.5,5.5,0,0,1-.1-.979,1.438,1.438,0,0,1,.593-1.339q3.556-.67,8.437-1.7a60.262,60.262,0,0,1,8.3-2.06q.7,0,.872,3.4t.558,3.4q-.279,0,3.608-2.987t6.432-2.987a10.18,10.18,0,0,1,7.286,2.936q3.521,3.451,3.521,9.374ZM331.174-8.709q0,3.863-.157,11.589t-.157,11.589q0,1.7.035,5.125t.035,5.125q0,14.009-2.371,19.417Q323.5,55.621,309.42,55.621a37.3,37.3,0,0,1-8.507-1.236q-6.9-1.648-6.9-4.223.941-5.82,2.057-13.031.314-1.957.906-1.957a.811.811,0,0,1,.314.1q5.857,2.318,9.343,2.318a10.461,10.461,0,0,0,3.765-.721q2.685-.927,2.684-2.781V31.877a12.145,12.145,0,0,1-7.007,1.906q-6.729,0-10.964-6.284t-4.236-16.173q0-9.889,4.009-16.482,4.149-6.85,10.773-6.85a7.259,7.259,0,0,1,5.927,2.936q1.011,1.6,2.022,3.142a2.535,2.535,0,0,0,.139-.979q0-.67-.139-2.009t-.139-2.009q0-.979.453-.979.767,0,8.611.9t8.018,1A1.291,1.291,0,0,1,331.174-8.709ZM314.3,12.15a5.53,5.53,0,0,0-.906-3.219,2.464,2.464,0,0,0-4.358,0,5.53,5.53,0,0,0-.906,3.219,5.53,5.53,0,0,0,.906,3.219,2.6,2.6,0,0,0,2.161,1.313,2.638,2.638,0,0,0,2.179-1.339A5.483,5.483,0,0,0,314.3,12.15Z" transform="translate(167.367 33.844)" fill="url(#linear-gradient)"/>
</svg>
